<?xml version="1.0" standalone="no"?>
<!DOCTYPE svg PUBLIC "-//W3C//DTD SVG 20010904//EN"
 "http://www.w3.org/TR/2001/REC-SVG-20010904/DTD/svg10.dtd">
<svg version="1.0" xmlns="http://www.w3.org/2000/svg"
 width="128.000000pt" height="128.000000pt" viewBox="0 0 128.000000 128.000000"
 preserveAspectRatio="xMidYMid meet">

<g transform="translate(0.000000,128.000000) scale(0.100000,-0.100000)"
fill="#000000" stroke="none">
<path d="M70 1102 c-69 -34 -70 -42 -70 -462 0 -420 1 -428 70 -462 32 -16 81
-18 570 -18 489 0 538 2 570 18 69 34 70 42 70 462 0 420 -1 428 -70 462 -32
16 -81 18 -570 18 -489 0 -538 -2 -570 -18z m930 -76 c-8 -7 -93 -75 -187
-150 l-173 -136 -172 136 c-95 75 -180 143 -188 150 -12 12 42 14 360 14 318
0 372 -2 360 -14z m-594 -307 l234 -180 234 180 c129 100 237 181 240 181 3 0
6 -148 6 -330 l0 -330 -480 0 -480 0 0 330 c0 182 3 330 6 330 3 0 111 -81
240 -181z"/>
</g>
</svg>
