<?xml version="1.0" standalone="no"?>
<!DOCTYPE svg PUBLIC "-//W3C//DTD SVG 20010904//EN"
 "http://www.w3.org/TR/2001/REC-SVG-20010904/DTD/svg10.dtd">
<svg version="1.0" xmlns="http://www.w3.org/2000/svg"
 width="128.000000pt" height="128.000000pt" viewBox="0 0 128.000000 128.000000"
 preserveAspectRatio="xMidYMid meet">

<g transform="translate(0.000000,128.000000) scale(0.100000,-0.100000)"
fill="#000000" stroke="none">
<path d="M78 1259 c-23 -12 -46 -35 -58 -59 -19 -38 -20 -58 -20 -560 0 -492
1 -523 19 -558 11 -22 35 -46 59 -60 l40 -22 521 0 c503 0 523 1 561 20 26 13
47 34 60 60 19 38 20 58 20 560 0 502 -1 522 -20 560 -13 26 -34 47 -60 60
-38 19 -57 20 -562 20 -501 -1 -525 -2 -560 -21z m1086 -95 c14 -14 16 -75 16
-524 0 -449 -2 -510 -16 -524 -14 -14 -75 -16 -524 -16 -449 0 -510 2 -524 16
-14 14 -16 75 -16 524 0 449 2 510 16 524 14 14 75 16 524 16 449 0 510 -2
524 -16z"/>
<path d="M252 1045 c-17 -14 -33 -38 -37 -54 -8 -36 16 -95 43 -110 26 -14 88
-14 114 0 27 15 51 74 43 110 -9 40 -58 79 -100 79 -21 0 -44 -9 -63 -25z"/>
<path d="M776 785 c-21 -7 -51 -26 -67 -41 l-29 -28 0 37 0 37 -85 0 -85 0 0
-285 0 -285 85 0 85 0 0 168 c0 186 10 225 63 250 36 17 88 8 113 -19 17 -19
19 -41 22 -210 l3 -190 87 3 87 3 -1 201 c-2 214 -8 255 -51 311 -40 54 -147
77 -227 48z"/>
<path d="M230 505 l0 -285 85 0 85 0 0 285 0 285 -85 0 -85 0 0 -285z"/>
</g>
</svg>
