<?xml version="1.0" standalone="no"?>
<!DOCTYPE svg PUBLIC "-//W3C//DTD SVG 20010904//EN"
 "http://www.w3.org/TR/2001/REC-SVG-20010904/DTD/svg10.dtd">
<svg version="1.0" xmlns="http://www.w3.org/2000/svg"
 width="128.000000pt" height="128.000000pt" viewBox="0 0 128.000000 128.000000"
 preserveAspectRatio="xMidYMid meet">

<g transform="translate(0.000000,128.000000) scale(0.100000,-0.100000)"
fill="#000000" stroke="none">
<path d="M820 1151 c-117 -36 -192 -134 -192 -252 0 -69 1 -69 -120 -44 -130
27 -297 121 -381 214 l-38 42 -15 -38 c-36 -85 -14 -197 55 -275 l31 -36 -32
7 c-18 5 -43 11 -55 15 -28 9 -29 -1 -8 -70 19 -65 72 -126 137 -158 48 -24
50 -26 22 -27 -16 -1 -39 0 -51 1 -71 5 48 -142 135 -168 22 -7 47 -12 57 -12
54 0 -87 -78 -181 -99 -27 -7 -78 -12 -112 -13 -34 0 -62 -3 -62 -5 0 -2 33
-19 73 -38 451 -213 958 48 1053 543 8 41 14 93 14 116 0 38 6 48 61 105 34
34 59 64 57 66 -2 2 -26 -2 -53 -10 -65 -20 -86 -20 -56 1 22 16 81 100 81
116 0 5 -17 0 -37 -11 -21 -10 -56 -24 -79 -31 -38 -11 -43 -10 -85 18 -69 47
-152 63 -219 43z"/>
</g>
</svg>
