<?xml version="1.0" standalone="no"?>
<!DOCTYPE svg PUBLIC "-//W3C//DTD SVG 20010904//EN"
 "http://www.w3.org/TR/2001/REC-SVG-20010904/DTD/svg10.dtd">
<svg version="1.0" xmlns="http://www.w3.org/2000/svg"
 width="128.000000pt" height="128.000000pt" viewBox="0 0 128.000000 128.000000"
 preserveAspectRatio="xMidYMid meet">

<g transform="translate(0.000000,128.000000) scale(0.100000,-0.100000)"
fill="#000000" stroke="none">
<path d="M92 1167 l-42 -114 0 -441 0 -442 155 0 155 0 0 -85 0 -85 83 0 82 0
85 85 85 85 125 0 125 0 168 168 167 167 0 388 0 387 -573 0 -572 0 -43 -113z
m1078 -305 l0 -308 -99 -97 -98 -97 -154 0 -154 0 -82 -82 -83 -83 0 83 0 82
-125 0 -125 0 0 405 0 405 460 0 460 0 0 -308z"/>
<path d="M555 938 c-3 -8 -4 -83 -3 -168 l3 -155 55 0 55 0 0 165 0 165 -53 3
c-37 2 -54 -1 -57 -10z"/>
<path d="M860 780 l0 -170 55 0 55 0 0 170 0 170 -55 0 -55 0 0 -170z"/>
</g>
</svg>
