<?xml version="1.0" standalone="no"?>
<!DOCTYPE svg PUBLIC "-//W3C//DTD SVG 20010904//EN"
 "http://www.w3.org/TR/2001/REC-SVG-20010904/DTD/svg10.dtd">
<svg version="1.0" xmlns="http://www.w3.org/2000/svg"
 width="128.000000pt" height="128.000000pt" viewBox="0 0 128.000000 128.000000"
 preserveAspectRatio="xMidYMid meet">

<g transform="translate(0.000000,128.000000) scale(0.100000,-0.100000)"
fill="#000000" stroke="none">
<path d="M20 1134 c0 -8 29 -50 65 -92 l65 -77 0 -313 0 -313 -75 -92 c-41
-50 -75 -95 -75 -99 0 -4 86 -8 190 -8 105 0 190 4 190 8 0 5 -34 51 -75 101
l-75 93 1 256 c0 232 2 254 15 227 8 -16 81 -176 163 -355 130 -283 152 -325
173 -328 22 -2 32 19 163 355 l140 357 3 -294 2 -294 -55 -56 c-30 -30 -55
-61 -55 -68 0 -9 60 -12 250 -12 197 0 250 3 250 13 0 7 -25 37 -55 67 l-55
54 0 376 0 376 55 54 c30 30 55 60 55 67 0 11 -37 13 -177 11 l-177 -3 -124
-307 c-68 -169 -127 -306 -131 -304 -3 2 -69 142 -146 310 l-139 306 -183 0
c-159 0 -183 -2 -183 -16z"/>
</g>
</svg>
